<?xml version="1.0" standalone="no"?>
<!DOCTYPE svg PUBLIC "-//W3C//DTD SVG 20010904//EN"
 "http://www.w3.org/TR/2001/REC-SVG-20010904/DTD/svg10.dtd">
<svg version="1.0" xmlns="http://www.w3.org/2000/svg"
 width="1891.000000pt" height="1890.000000pt" viewBox="0 0 1891.000000 1890.000000"
 preserveAspectRatio="xMidYMid meet">

<g transform="translate(0.000000,1890.000000) scale(0.100000,-0.100000)"
fill="#000000" stroke="none">
<path d="M3665 15554 c-742 -131 -1173 -547 -1361 -1314 l-29 -115 -2 -1535
c-4 -1693 -7 -1591 58 -1793 111 -341 329 -551 680 -654 l94 -28 2125 -5 2125
-5 98 -27 c410 -113 654 -357 764 -765 26 -94 27 -111 31 -395 l3 -298 -3356
0 -3355 0 3 -1872 2 -1873 27 -120 c74 -327 201 -582 387 -779 171 -179 445
-327 741 -399 246 -60 90 -57 2795 -57 2680 0 2544 -3 2780 52 221 51 442 151
607 275 271 204 442 497 535 913 l28 125 3 2490 c3 2745 7 2579 -58 2831 -69
266 -180 473 -352 650 -188 194 -413 317 -720 393 -260 65 -93 61 -2718 61
l-2390 0 0 1243 c0 844 4 1271 11 1332 44 360 223 583 555 694 188 63 147 61
1506 61 1178 0 1242 -1 1335 -19 169 -33 300 -88 432 -182 196 -138 338 -344
397 -577 l24 -95 0 -617 c0 -371 4 -639 10 -671 22 -119 106 -241 212 -310 83
-53 165 -73 283 -67 85 5 104 9 171 42 128 64 225 186 254 322 7 33 10 319 8
874 l-3 825 -28 125 c-153 673 -523 1062 -1166 1225 -227 57 -148 55 -1876 54
-1324 -1 -1603 -3 -1670 -15z m1956 -8000 c90 -26 166 -73 229 -140 185 -198
183 -497 -6 -690 l-54 -56 0 -314 c0 -358 -4 -383 -81 -463 -150 -156 -414
-105 -489 95 -19 51 -20 77 -20 368 l0 314 -54 56 c-263 269 -148 711 213 827
71 23 190 24 262 3z"/>
<path d="M11413 15559 c-566 -55 -890 -347 -967 -872 -23 -150 -23 -1267 -1
-1372 51 -239 174 -484 447 -886 l119 -175 -19 -52 c-28 -72 -130 -222 -253
-372 -270 -328 -331 -426 -296 -474 18 -24 147 -36 400 -36 l207 0 0 -958 0
-959 46 -59 c122 -156 209 -312 239 -429 8 -32 15 -95 15 -140 -1 -144 -60
-264 -198 -403 l-73 -73 28 -33 c15 -18 70 -80 121 -137 200 -222 337 -435
349 -542 5 -38 0 -55 -31 -113 -46 -88 -128 -198 -235 -314 l-83 -91 23 -27
c13 -15 52 -57 85 -93 140 -152 273 -333 324 -441 42 -88 46 -132 20 -198 -38
-98 -121 -253 -185 -350 -73 -110 -230 -296 -311 -368 l-56 -50 51 -75 c90
-133 136 -238 151 -342 8 -50 6 -66 -11 -104 -25 -57 -81 -131 -185 -247 l-82
-91 50 -94 c71 -134 222 -358 330 -490 188 -231 418 -432 591 -516 134 -66
148 -69 225 -43 380 126 872 635 1037 1073 l25 67 0 2555 0 2555 1875 0 1875
0 0 765 0 765 -1875 0 -1875 0 0 995 0 995 2355 0 2355 0 0 584 c0 717 -9 831
-86 1045 -51 144 -107 233 -209 337 -138 140 -275 211 -505 263 l-115 26
-2805 1 c-1543 1 -2842 -2 -2887 -7z m547 -732 c173 -61 320 -207 380 -380 28
-78 38 -241 21 -329 -7 -35 -31 -101 -53 -148 -32 -67 -57 -101 -117 -161
-130 -129 -256 -182 -436 -182 -94 0 -121 3 -190 27 -111 38 -182 84 -262 170
-112 120 -166 255 -166 416 0 108 15 174 65 278 73 153 222 277 389 322 107
29 266 23 369 -13z"/>
</g>
</svg>
